<?xml version="1.0"?>
<svg xmlns="http://www.w3.org/2000/svg" id="Icons" viewBox="0 0 60 60" width="512" height="512"><path d="M6,11v1.272A24.873,24.873,0,0,1,17,10a24.873,24.873,0,0,1,11,2.273V11a9.01,9.01,0,0,0-9-9H15A9.01,9.01,0,0,0,6,11Z"/><path d="M6.618,14.2l1.113,1.113a2.4,2.4,0,0,0,2.379.566A21.541,21.541,0,0,1,17,15a21.555,21.555,0,0,1,6.891.884,2.406,2.406,0,0,0,2.378-.566L27.382,14.2A22.764,22.764,0,0,0,17,12,22.764,22.764,0,0,0,6.618,14.2Z"/><path d="M14,33.637V41h6V33.637a12.578,12.578,0,0,1-6,0Z"/><path d="M22,37v4a2,2,0,0,1-2,2H14a2,2,0,0,1-2-2V37H10a8.047,8.047,0,0,0-1,.069V58H25V37.069A8.047,8.047,0,0,0,24,37Z"/><path d="M46,18a1,1,0,0,0,1,1H57.471L55.41,10.752A.994.994,0,0,0,54.44,10H46Zm2.143-5.515a1,1,0,0,1,1.372-.342l5,3a1,1,0,1,1-1.03,1.714l-5-3A1,1,0,0,1,48.143,12.485Z"/><path d="M47,21a3.009,3.009,0,0,1-3-3V10H42V32h2.81a5.989,5.989,0,0,1,10.38,0H57a1,1,0,0,0,1-1V30H57a3,3,0,0,1,0-6h1V21.25a1.007,1.007,0,0,0-.03-.25Zm2,4H47a1,1,0,0,1,0-2h2a1,1,0,0,1,0,2Z"/><path d="M30,15.184v5.632a2.982,2.982,0,0,0,0-5.632Z"/><path d="M4,20.816V15.184a2.982,2.982,0,0,0,0,5.632Z"/><path d="M2,45V56a2,2,0,0,0,2,2H7V37.589A8.009,8.009,0,0,0,2,45Z"/><path d="M28,21V16.414l-.317.317A4.357,4.357,0,0,1,24.62,18a4.219,4.219,0,0,1-1.381-.227A19.76,19.76,0,0,0,17,17a19.745,19.745,0,0,0-6.238.774A4.224,4.224,0,0,1,9.381,18a4.3,4.3,0,0,1-3.064-1.269L6,16.414V21a11,11,0,0,0,22,0Zm-6.1,5.447A5.316,5.316,0,0,1,17,29a5.316,5.316,0,0,1-4.895-2.553,1,1,0,0,1,1.784-.9A3.4,3.4,0,0,0,17,27a3.392,3.392,0,0,0,3.112-1.46,1,1,0,0,1,1.345-.42A.993.993,0,0,1,21.9,26.447Z"/><path d="M40,8a1,1,0,0,0-1-1H29.236A10.927,10.927,0,0,1,30,11v2.1a4.992,4.992,0,0,1-.157,9.814A12.9,12.9,0,0,1,27.937,28H40Z"/><path d="M56,27a1,1,0,0,0,1,1h1V26H57A1,1,0,0,0,56,27Z"/><path d="M40,30H26.359A13.076,13.076,0,0,1,23.9,32H40Z"/><path d="M36,38H27.83a8,8,0,0,0-.83-.411V58h3a2,2,0,0,0,2-2V45a7.924,7.924,0,0,0-1.79-5H36a1,1,0,0,0,0-2Z"/><path d="M57,38H52.618a4,4,0,1,0-5.236,0H40a1,1,0,0,0,0,2H57a1,1,0,0,0,0-2Z"/></svg>
